/* XPM */
static char *result[] = {
/* columns rows colors chars-per-pixel */
"64 64 66 1 ",
"  c #C3862F",
". c #C68532",
"X c #C78A31",
"o c #C98F32",
"O c #D08A33",
"+ c #D08F3A",
"@ c #CB9233",
"# c #CF9D36",
"$ c #CE9C3E",
"% c #D49335",
"& c #DC9735",
"* c #D79B37",
"= c #DC9A36",
"- c #D49D3A",
"; c #DD9F38",
": c #E09E38",
"> c #D5A038",
", c #DEA439",
"< c #DEAC3B",
"1 c #DFB13C",
"2 c #E3A53A",
"3 c #E4AC3C",
"4 c #E5B33E",
"5 c #E8B63F",
"6 c #E7B93F",
"7 c #EAB83F",
"8 c #D1A84B",
"9 c #D9B14F",
"0 c #DBBF5E",
"q c #E7BC40",
"w c #E9BC41",
"e c #DEC450",
"r c #E5C442",
"t c #EAC343",
"y c #ECCB45",
"u c #EFC948",
"i c #F1CD45",
"p c #F1CE4C",
"a c #ECD147",
"s c #EED449",
"d c #EED949",
"f c #F1D247",
"g c #F2D649",
"h c #F3DD4B",
"j c #E2C65F",
"k c #E6D559",
"l c #F3DB51",
"z c #F3E34C",
"x c #F5EB4F",
"c c #F3E251",
"v c #F5EC54",
"b c #F7F252",
"n c #F8F351",
"m c #F9FA53",
"M c #F7F158",
"N c #F8F559",
"B c #F9FA5A",
"V c #E4CE66",
"C c #E1CD6B",
"Z c #EEE564",
"A c #F1E361",
"S c #F1EB66",
"D c #F7F76D",
"F c #FAFB6E",
"G c #F9FC70",
"H c None",
/* pixels */
"HHHHHHHHHHHHHHHHHHHHHHHHHHHHHHHHHHHHHHHHHHHHHHHHHHHHHHHHHHHHHHHH",
"HHHHHHHHHHHHHHHHHHHHHHHHHHHHHHHHHHHHHHHHHHHHHHHHHHHHHHHHHHHHHHHH",
"HHHHHHHHHHHHHHHHHHHHHHHHHHHHHHHHHHHHHHHHHHHHHHHHHHHHHHHHHHHHHHHH",
"HHHHHHHHHHHHHHHHHHHHHHHHHHHHHHHHHHHHHHHHHHHHHHHHHHHHHHHHHHHHHHHH",
"HHHHHHHHHHHHHHHHHHHHHHHHHHHHHHHHHHHHHHHHHHHHHHHHHHHHHHHHHHHHHHHH",
"HHHHHHHHHHHHHHHHHHHHHHHHHHHHHHHHHHHHHHHHHHHHHHHHHHHHHHHHHHHHHHHH",
"HHHHHHHHHHHHHHHHHHHHHHHHHHHHHHHHHHHHHHHHHHHHHHHHHHHHHHHHHHHHHHHH",
"HHHHHHHHHHHHHHHHHHHHHHHHHHHHHHHHHHHHHHHHHHHHHHHHHHHHHHHHHHHHHHHH",
"HHHHHHHHHHHHHHHHHHHHHHHHHHHHHHHHHHHHHHHHHHHHHHHHHHHHHHHHHHHHHHHH",
"HHHHHHHHHHHHHHHHHHHHHHHHHHHHHHHHHHHHHHHHHHHHHHHHHHHHHHHHHHHHHHHH",
"HHHHHHHHHHHHHHHHHHHHHHHHHHHHHHHHHHHHHHHHHHHHHHHHHHHHHHHHHHHHHHHH",
"HHHHHHHHHHHHHHHHHHHHHHHHHHHHHHHHHHHHHHHHHHHHHHHHHHHHHHHHHHHHHHHH",
"HHHHHHHHHHHHHHHHHHHHHHHHHHHHHHHHHHHHHHHHHHHHHHHHHHHHHHHHHHHHHHHH",
"HHHHHHHHHHHHHHHHHHHHHHHHHHHHHHHHHHHHHHHHHHHHHHHHHHHHHHHHHHHHHHHH",
"HHHHHHHHHHHHHHHHHHHHHHHHHHHHHHHHHHHHHHHHHHHHHHHHHHHHHHHHHHHHHHHH",
"HHHHHHHHHHHHHHHHHHHHHHHHHHHHHHHHHHHHHHHHHHHHHHHHHHHHHHHHHHHHHHHH",
"HHHHHHHHHHHHHHHHHHHHHHHHHHHHHHHHHHHHHHHHHHHHHHHHHHHHHHHHHHHHHHHH",
"HHHHHHHHHHHHHHHHHHHHHHHHHHHHHHHHHHHHHHHHHHHHHHHHHHHHHHHHHHHHHHHH",
"HHHHHHHHHHHHHHHHHHHHHHHHHHHHHHHHHHHHHHHHHHHHHHHHHHHHHHHHHHHHHHHH",
"HHHHHHHHHHHHHHHHHHHHHHHHHHHHHHHHHHHHHHHHHHHHHHHHHHHHHHHHHHHHHHHH",
"HHHHHHHHHHHHHHHHHHHHHHHHHHHHHHHHHHHHHHHHHHHHHHHHHHHHHHHHHHHHHHHH",
"HHHHHHHHHHHHHHHHHHHHHHHHHHHHHHHHHHHHHHHHHHHHHHHHHHHHHHHHHHHHHHHH",
"HHHHHHHHHHHHHHHHHHHHHHHHHHHHHHHHHHHHHHHHHHHHHHHHHHHHHHHHHHHHHHHH",
"HHHHHHHHHHHHHHHHHHHHHHHHHHHHHHHHHHHHHHHHHHHHHHHHHHHHHHHHHHHHHHHH",
"HHHHHHHHHHHHHHHHHHHHHHHHHHHHHHHHHHHHHHHHHHHHHHHHHHHHHHHHHHHHHHHH",
"HHHHHHHHHHHHHHHHHHHHHHHHHHHHHHHHHHHHHHHHHHHHHHHHHHHHHHHHHHHHHHHH",
"HHHHHHHHHHHHHHHHHHHHHHHHHHHHHHHHHHHHHHHHHHHHHHHHHHHHHHHHHHHHHHHH",
"HHHHHHHHHHHHHHHHHHHHHHHHHHHHHHHHHHHHHHHHHHHHHHHHHHHHHHHHHHHHHHHH",
"HHHHHHHHHHHHHHHHHHHHHHHHHHHHHHHHHHHHHHHHHHHHHHHHHHHHHHHHHHHHHHHH",
"HHHHHHHHHHHHHHHHHHHHHHHHHHHHHHHHHHHHHHHHHHHHHHHHHHHHHHHHHHHHHHHH",
"HHHHHHHHHHHHHHHHHHHHHHHHHHHHHHHHHHHHHHHHHHHHHHHHHHHHHHHHHHHHHHHH",
"HHHHHHHHHHHHHHHHHHHHHHHHHHHHHHHHHHHHHHHHHHHHHHHHHHHHHHHHHHHHHHHH",
"HHHHHHHHHHHHHHHHHHHHHHHHHHHHHHHHHHHHHHHHHHHHHHHHHHHHHHHHHHHHHHHH",
"HHHHHHHHHHHHHHHHHHHHHHHHHHHHHHHHHHHHHHHHHHHHHHHHHHHHHHHHHHHHHHHH",
"HHHHHHHHHHHHHHHHHHHHHHHHHHHHHHHHHHHHHHHHHHHHHHHHHHHHHHHHHHHHHHHH",
"HHHHHHHHHHHHHHHHHHHHHHHHHHHHHHHHHHHHHHHHHHHHHHHHHHHHHHHHHHHHHHHH",
"HHHHHHHHHHHHHHHHHHHHHHHHHHHHHHHHHHHHHHHHHHHHHHHHHHHHHHHHHHHHHHHH",
"HHHHHHHHHHHHHHHHHHHHHHHHHHHHHHHHHHHHHHHHHHHHHHHHHHHHHHHHHHHHHHHH",
"HHHHHHHHHHHHHHHHHHHHHHHHHHHHHllzcvvHHHHHHHHHHHHHHHHHHHHHHHHHHHHH",
"HHHHHHHHHHHHHHHHHHHHHHHHHHpsttwrtyszbBHHHHHHHHHHHHHHHHHHHHHHHHHH",
"HHHHHHHHHHHHHHHHHHHHHHHHliw32333446raznHHHHHHHHHHHHHHHHHHHHHHHHH",
"HHHHHHHHHHHHHHHHHHHHHHHci422223334466tdnHHHHHHHHHHHHHHHHHHHHHHHH",
"HHHHHHHHHHHHHHHHHHHHHHvg5332222qy45466qabHHHHHHHHHHHHHHHHHHHHHHH",
"HHHHHHHHHHHHHHHHHHHHHHzw4433223xnt4466qtdmHHHHHHHHHHHHHHHHHHHHHH",
"HHHHHHHHHHHHHHHHHHHHHmyq664332smmn745566qzBHHHHHHHHHHHHHHHHHHHHH",
"HHHHHHHHHHHHHHHHHHHHMzrq6644<rmmmmx73446qyvHHHHHHHHHHHHHHHHHHHHH",
"HHHHHHHHHHHHHHHHHHHHvutr6666yxnnnnnzi65466zNHHHHHHHHHHHHHHHHHHHH",
"HHHHHHHHHHHHHHHHHHHHdqqtyygzzzzzzzzzzhfyq4rbHHHHHHHHHHHHHHHHHHHH",
"HHHHHHHHHHHHHHHHHHHHp44*ygggfggggggfgggg<,1cHHHHHHHHHHHHHHHHHHHH",
"HHHHHHHHHHHHHHHHHHHpw34o-iifiiiiiiiiiii4-,1hHHHHHHHHHHHHHHHHHHHH",
"HHHHHHHHHHHHHHHHHHHpw233 <iiiiiiiiiiiit-,,,gHHHHHHHHHHHHHHHHHHHH",
"HHHHHHHHHHHHHHHHHHHg7:23, tiiiiiiiiiii,&;;,sHHHHHHHHHHHHHHHHHHHH",
"HHHHHHHHHHHHHHHHHHHpw2223@@iiiifiiifft&==;,dHHHHHHHHHHHHHHHHHHHH",
"HHHHHHHHHHHHHHHHHHHHw2:==; dzhhhhzzhzu====<gHHHHHHHHHHHHHHHHHHHH",
"HHHHHHHHHHHHHHHHHHHHu2&&&=Xznnnnnnnnmd;=&=4gHHHHHHHHHHHHHHHHHHHH",
"HHHHHHHHHHHHHHHHHHHHp3&&&& vBBBBBBBmBc,===tHHHHHHHHHHHHHHHHHHHHH",
"HHHHHHHHHHHHHHHHHHHHHu&&&&.AGDSkrkSDGZ,;=3pHHHHHHHHHHHHHHHHHHHHH",
"HHHHHHHHHHHHHHHHHHHHHpw=&&.CV9-*--#80j,,,yHHHHHHHHHHHHHHHHHHHHHH",
"HHHHHHHHHHHHHHHHHHHHHHu3&&O+%=;,<83<>-,<ylHHHHHHHHHHHHHHHHHHHHHH",
"HHHHHHHHHHHHHHHHHHHHHHHuq&&&&&=;,<341<4ycHHHHHHHHHHHHHHHHHHHHHHH",
"HHHHHHHHHHHHHHHHHHHHHHHHuw&&&&&=;,<<1rcvHHHHHHHHHHHHHHHHHHHHHHHH",
"HHHHHHHHHHHHHHHHHHHHHHHHHpww2==&=,3qdmHHHHHHHHHHHHHHHHHHHHHHHHHH",
"HHHHHHHHHHHHHHHHHHHHHHHHHHHputwwqtslHHHHHHHHHHHHHHHHHHHHHHHHHHHH",
"HHHHHHHHHHHHHHHHHHHHHHHHHHHHHHHHHHHHHHHHHHHHHHHHHHHHHHHHHHHHHHHH"
};
