/* XPM */
static char *result[] = {
/* columns rows colors chars-per-pixel */
"64 64 95 2 ",
"   c #0E151F",
".  c #14141E",
"X  c #1C131E",
"o  c #240E1D",
"O  c #2C0F1F",
"+  c #22131E",
"@  c #2C131E",
"#  c #34141E",
"$  c #3B131E",
"%  c #1A0F24",
"&  c #0F1425",
"*  c #0F1528",
"=  c #151326",
"-  c #1B1424",
";  c #141824",
":  c #1B1B27",
">  c #151428",
",  c #181228",
"<  c #161828",
"1  c #1B1C2A",
"2  c #241423",
"3  c #2C1323",
"4  c #241925",
"5  c #251728",
"6  c #2C1429",
"7  c #221A28",
"8  c #2D182A",
"9  c #341523",
"0  c #3B1423",
"q  c #351926",
"w  c #3A1824",
"e  c #321729",
"r  c #3F172E",
"t  c #351B2C",
"y  c #3B1B2C",
"u  c #2F1E31",
"i  c #301D31",
"p  c #3D1D30",
"a  c #192028",
"s  c #1D2230",
"d  c #44131C",
"f  c #4B131C",
"g  c #50161E",
"h  c #58171F",
"j  c #441422",
"k  c #4B1421",
"l  c #4C1A24",
"z  c #411D2C",
"x  c #4C1B2C",
"c  c #521623",
"v  c #531923",
"b  c #591923",
"n  c #531C2B",
"m  c #5C1D2A",
"M  c #471D32",
"N  c #4A1E31",
"B  c #541E31",
"V  c #5A1D32",
"C  c #631E2B",
"Z  c #46212F",
"A  c #48202F",
"S  c #56222F",
"D  c #5E202C",
"F  c #412030",
"G  c #482030",
"H  c #552332",
"J  c #5A2236",
"K  c #5B2138",
"L  c #64212D",
"P  c #6A232E",
"I  c #70252F",
"U  c #652433",
"Y  c #6B2433",
"T  c #672937",
"R  c #6C2936",
"E  c #642639",
"W  c #6C2639",
"Q  c #65283A",
"!  c #6B2B3A",
"~  c #712534",
"^  c #762B36",
"/  c #792B36",
"(  c #712738",
")  c #762B3A",
"_  c #792B3A",
"`  c #73323E",
"'  c #7E313D",
"]  c #7B2F41",
"[  c #7B3344",
"{  c #812F3C",
"}  c #84323E",
"|  c #89323F",
" . c #852F40",
".. c #873241",
"X. c #893241",
/* pixels */
"< = = = > = = = = = < = = = = . = = = = = = = = = = = . < = = = = = = = = = = . = = = = = = = = = = = . = = = = = = < = = = = = ",
"= = > = > > > > = = > > = , , = , = = , - = > , = , > - > > = = , = > > < = = , > = , = = - > = , = = , > > = , , = , > = = = - ",
"= > > > , , , , , > > > , = , > , > > , < > , = , , > , > > > > - > > > , = , , < , > > < , > , > > , , > > > > - > > > , > = , ",
"; > > > > > > > < = > = < = < < < = = = = = < = > = > > = > > = = = = < < < = < = = < = = = = < > > > = > > > > < = > > > < > > ",
"; = > > = = = = = = = = = = = = = = , = = = = = = , = = > > > = = = = < = = , % = , = = = = = = > > > = > > > = = > = = = = > = ",
"; = > > , > = = = , % = = = = = * > = * > > > > > = ; < > > > = % , , > = = * & * > = > > * > > * = > > > > = = = = > = = > = > ",
"= = = = = = = = = = = = < > = = - < = < = = = = = = . . = = = = = = > > , < = = = = = - = = - ; . X < = = = = > > = = = = = = > ",
". = > > = , = = = > = = 2 t z r y z z z z y z z p y Z w q 2 = & & % 2 t z z z y Z y z y z z y z y z 9 2 ; = = = = > , = = = > = ",
", = > > = = = = > * , O x U W ) ) ) ) ) ) _ ( _ ) ) _ ( U z @ = = O l K ) ) ) ) ) ) ) ) ) ) ) _ ) ( U z o % % > > = > % > = , > ",
"= = , > = = = = = = + k P ( ) ) ) ) ) ) ) ) ) ) ) ] _ _ ^ P v 2 o c P ^ ) _ ) ) ) ) ) ) ) ) ) _ _ _ ( U c 2 * , = , > > > & > % ",
". = > = = > , = = = 3 D ^ ^ ) ) ) ) ) ) ) ) ) ) ) ) _ _ ) ) Y e 3 L / ^ ) ) ) ) ) ) ) ) ) ) _ _ _ _ ) ) U 6 > = = > , > = , > & ",
"= > > > > = = , = = e T / ) _ ) ) ) ) ) ) ) ) ) ) ) _ _ ) ) ) t t ! / ^ _ ) ) ) ) ) ) ) ) ) ) ` _ _ _ ` ( e = & > = = , = & > > ",
". = = = = = = = = = t ! _ ^ _ ) ) ) ) ) ) ) ) ) ) _ _ _ / ( / e y ! _ / _ ) ) ) ) ) ) ) ) ) ) _ _ _ / ) ) t > > > > & > , > > & ",
"= = = < = = = > = ; e T / ^ _ ) ) ) ) ) ) ) ) ) ) ) _ _ ^ / / e t ! _ ^ _ ) ) ) ) ) ) ) ) ) ) ) _ _ ) ) ) e > > & % , > > % = = ",
". = = = . = = = = & 2 V ( ^ ) _ ) ) ( ) ) ) ) ) ) ) ) _ / ~ C @ 6 V ^ ^ ) ^ ) ) ( ] ( ) _ ) _ ^ ( / ) ~ m 2 , = > > > % > , = = ",
". , . = - = = - = & - w m I ^ ' / _ ` ) _ ) / _ ^ ^ _ ) P S # X - w m I / ' ^ ^ _ _ ) ^ ^ ^ ^ ^ _ _ ~ V $ % > = , & > > > > = = ",
"- , = > > * * > = = = + 9 m W T T R R ( ~ ( R R W W W W S w X . - + 0 n W T W Y ( R R R ( R R Y ] E B 9 o = > = > = = = = = > = ",
". , , , = % . = - = = & ; : 7 : 4 4 - - : : : - 5 7 - ; - = = = * & ; 1 7 - 4 2 : X ; - - : - - - 2 - - % = > > , > = = , = = > ",
". 6 z B H H H H H H K K J H H H B z e % = = 2 6 z H H H H J J J J J J J H H B M e - = < > > = < . = = < > > = > = = = = = > = > ",
"# c Y ) _ _ _ _ ) ^ ` _ ) ) ) _ ^ Y n # X - # v Y ^ / ^ ^ ) ) ` ^ _ _ ) ) / ( Y l # X = = < = , = & < > > , = = = , > & , = > = ",
"b ~ _ _ ) ) _ ) ) ) ) ) ) ) _ _ ) ) Y D 3 o b I ^ ) ) ) ) ) ) ) ) ) ) ) ) _ _ ) Y m 3 < = > = > = = & = = = = > > > = = = = > , ",
"U ^ / ^ ) ) ) ) ) ) ) ) ) ) ) _ ) ) ` R q e U ^ ) ) ) ) ) ) ) ) ) ) ) ) ] _ ) ) ) T e = = > > = = = = , = = > = % > , = = , > > ",
"! _ / / ) ) ) ) ) ) ) ) ) ) _ _ _ ) ) ) y t T / _ _ ) ) ) ) ) ) ) ) ) ) _ _ ) ) ) ) t > > = = = > = = > = = > = > > > & > & > > ",
"` _ / _ ) ) ) ) ) ) ) ) ) ) ) ) _ ^ _ ^ y t ! _ ) _ ) ) ) ) ) ) ) ) ) ) _ _ _ ) ) ( t = = = = = = > > = , = = > > & > % > > > % ",
"! _ _ _ ) _ ) ) _ ) ) _ _ ) _ ) _ _ / ~ w e U _ ) _ ) _ _ ) ) ) ) ) _ ) _ ) _ _ ) ( t = ; = = = = & & > & , , & & , & = = = = = ",
"n Y / / / ^ ) ) ) ) ) ^ ) ^ ^ ^ _ _ Y n 3 2 n Y / ^ ^ ) ) ^ ) ) ) ) ) ^ ^ ^ _ ) P b 3 = - = , = , > > > , & , = & , > > = = , > ",
"@ v R / ^ ^ ^ ^ ^ ^ ^ / / / _ _ _ ( n # . = 9 n Y / / ^ / ^ ^ / _ _ _ _ ) ) ^ U l @ = > = = > > > > > > = = , , , , = % > % > > ",
". 4 l S S H S S S H H S S H H H J z 3 + % = X 3 x H H H S H S H H H J B H H H z @ X = > = & * & & & > > > > & , , & , > > > > > ",
". ; - : - , < , - < < , - < - . - - < , % % = = - - = , - > < < < - : 5 8 4 4 8 5 5 5 2 4 4 2 2 2 3 4 - & = , , > , = = & > > & ",
"; - = & = < = = = = = = = = < = & = > > = = > > > > = = = < = = = o w S J U U U E E E U U E T E U V x e X % = & > > = = , % > > ",
". = , = < = = = < = = = = = = = = > > > * = > > > * = = < = = & - $ D I ) ) ^ ` ) ) ) _ ) _ _ _ _ _ Y m $ % & > > > = = % > & , ",
"; < , = = = = = = = = = = = = = = = = = < = > = = > = = = = = = 3 m ^ _ _ ) ) ^ ) ) ) ) ) ) ) ) ) _ _ Y m 2 > > % > & > > , = = ",
"= = > > = & > = = = > = = > = > = , = = = = = = = > = = > = =   q R / / _ _ _ _ ) ) ) ) ) ) ) ( ) ) ) ) ( i > > = > = = = = > = ",
"= = > , = > = = = = & = = = > = = = = & = = = = > = > > = = = = y ! _ / _ _ ) ) ) ) ) ) ) ) ) ) ) ) / _ ( e > = > = = = , = > = ",
"; = , , = = = > = = = > > , > = , > > > > = = = & = = = = > = = 3 C / / _ ) ) ) ) ) ) ) ) ) ) ) ) _ _ W m 6 & , = = > = , = = > ",
"= = = > = > > > > > > > = > > = % > > > > > , = , > > > > > = ; + k P ^ ) _ ) ) _ _ ` ) _ _ _ _ _ _ ( C f 2 > & > > > & > = > = ",
"= , = ; = = , = > > , = = % > > * & > , = * = = = * = , = , , = 2 0 b L Y ^ I ~ ^ R ) R R ^ R ~ ^ ~ C c $ 2 , , , , > > > % * > ",
"- , & * = > = = = = = = = ; = = > > % % % = , > > * ; = & = ; = % O $ l l l l v h g h b h b g c b k j $ @ - ; & = ; = = > > % % ",
"< > = > > , = > = = = , = , <   = % * > = & & = > > & , > > < > > - 2 3 3 2 3 @ 3 3 @ @ @ 4 3 3 3 3 3 5 - < = , = = =   = % * > ",
". - 6 y t t t r t t t t t t t q w e % & & & = - 6 t p e e p t u i i u t t t y 8 - ; ; = . : 6 y e t t e t t t p t q t w y 6 % & ",
"o $ D _ ..} } ' ..' ' } } ' } ..] E j 2 - - o 0 U _ ' } } ' } }  ...} } | | { Y j 3 - - + w Y { } | } ....} } }  .[ } ..] K w 2 ",
"f Y { | X.X.....X...............X. .~ l + 2 f ~ } ............| | ..} ..| X.| { R l + o f ~ ' } | } } ......} ..| } X.X... .Y f ",
"U { X.X......................... .X.{ ( q 3 U { | X.....................X.X. .X.' Y e q Y } | X.................X...X.X.| ..} I ",
"[ } | X.X.......X. .............X.X.X...F t [ | X.X.....................X. .X.X.....r p [ | X.X....................... .| ......",
")  .X.X.................X.X.X.X.X.X...{ y t ) } | | } ..............X.X...} X.X...' y y ] } | X.....................| | ..| ..} ",
"m { X.X.X.X...X.X.X.X.X.X.X.X.X.| .._ L e 3 m ' | | X.X.X.X.X.......} | X.X.X.X./ L 3 3 m ' | } ....X.....| X.X.......| X.../ L ",
"d C P C Y C U Y L P L P P C C Y Y P C c O 3 k C P P P P P U L Y Y L P P P P P P C c 3 3 j C P P P P Y Y Y U U P P Y L L L P L f ",
"# j f g f f f f f f f d f f f f g f d w + + 9 d g f f f f d f d f f f d f f f k d w + + $ d f g f f f d f f f f f f f g g f d $ ",
"@ 9 j d d d d d $ f f f f j j k d 0 # @ X ; 3 $ d d d d f f f f f k j d d f f 0 # + - = O $ f d d d f f f d d d d d d f f $ O + ",
"- 2 2 2 2 2 o 2 2 o 2 2 % O 2 o 2 2 - = & ; , - 2 X 2 2 2 2 - 2 2 o 2 2 2 2 2 2 - = * > - - X - 2 2 2 2 X 2 2 2 2 o X o + 2 X - ",
"= , > = & % % > > = = , 2 r M M A N N F M M M M M N N M r 6 , > > % 6 r M F A G N N M M M z N G G x r 6 , = & = = = &   ; , , = ",
"= > = & , & & , & & % O l U ( ) _ _ _ ) ( ( ) ) / / _ ^ U x 3 - % O l U ) _ _ _ ) ) ( ) ) / / _ _ ( U x O % & = = = = = = = > > ",
"; = = , = = = , < = + l Y ^ ( _ ) ) ) ) ` ) ) ) / / _ _ ( Y b 2 o c Y ^ ) ) ) ) ) ) ) ) ` ^ _ _ _ ) ( U v 2 > = = = = = = = = = ",
"= = , > = > = > = = 3 D ( ^ _ ) ) ) ) ) ^ ) ) ) ) _ _ _ ) ) Y 6 9 D ^ ) ) ) ) ) ) ) ) ) ) ) ) _ _ _ ] ) U 6 = > , = = = = = = > ",
". = = > = = = = = = t R _ ) _ ) ) ) ) ) ) ) ) ) ) ) ] _ ) ] ( e t ! / ^ ) ) ) ) ) ) ) ) ) ) ) ) _ _ ) ) ) t > = = = > & = = = > ",
"= < = = = = = = = . t ! _ ) _ ) ) ) ) ) ) ) ) ) ) _ _ _ ) ) _ q y ! _ ^ ) ) ) ) ) ) ) ) ) ) ) ) _ _ / ) ( t * > > = = = , , = , ",
"= > = > = = = = = & e E _ ^ _ ) ^ ) ) ) ) ) ^ ) ) ) ) _ _ / ^ q t T / ^ _ ) _ ) ) ) ) ) ) ) ^ ) ) ) _ _ ( e = , = = , > > % > > ",
"= = , > = , > > = = 3 n ~ / ^ ) ' _ ) _ _ _ ' ^ _ ) ) _ _ Y m 3 6 m ~ / ) ) _ _ ) ' _ _ _ _ ' ^ ^ _ _ ( m 2 = = = > = , > > > & ",
"= = , > = = > = & = , 9 m Y _ / ^ ^ ^ / ^ ^ ^ ^ ^ ^ _ ] W m $ . - 0 V ( ' ^ ^ ^ ^ ^ ^ / ^ ^ ^ ^ _ _ Y n 0 , > , > = = > = = > % ",
". = = > = = = = , & = X e x U U U T U T U T U T U U Q E N 9 + - ; X 9 x U U U U U U T T U T T U Q E x # X - = > = > , = = & > > ",
"= = , = = = = > = % % . - 4 4 - - - 7 - : - - - - : 2 4 - - - % % = - - 4 - : - - 4 - - 5 - - - - 2 - - - , = = = = = = = > > % ",
". < = > = = = = > = = = = * * > = < > > , > , < , > ; & = < < = = = = = & > , , = < > > > = < < ; = ; < > = = = > = = = , > > > ",
"; * = > - = = < = = < < , = > = . = = = < = . ; = - = = < > = = ; = < < = = < = . = = = = ; = X - = = < < = = = = , = = , = & , ",
"a 1 s 1 < : : : : < : : < : : < : : : : : : : : : : : ; : : : : : < : : : : : < : : : : : < : : < : : < : : : : : : : : : < < - "
};
