/* XPM */
static char *result[] = {
/* columns rows colors chars-per-pixel */
"64 64 97 2 ",
"   c #2E345F",
".  c #333656",
"X  c #343A57",
"o  c #3B3D57",
"O  c #34365B",
"+  c #38375E",
"@  c #363A5C",
"#  c #3A3D5E",
"$  c #313660",
"%  c #363A61",
"&  c #3C3E61",
"*  c #37425F",
"=  c #3A425E",
"-  c #3E495B",
";  c #364065",
":  c #3D4264",
">  c #3E4964",
",  c #3E456A",
"<  c #3F496E",
"1  c #41475E",
"2  c #404A5F",
"3  c #414566",
"4  c #424964",
"5  c #42456B",
"6  c #444B6B",
"7  c #484E6D",
"8  c #4A526E",
"9  c #4A5A6D",
"0  c #454970",
"q  c #4A4E73",
"w  c #475272",
"e  c #4C5373",
"r  c #4E5973",
"t  c #4E547A",
"y  c #4F5D78",
"u  c #505674",
"i  c #525C76",
"p  c #50577C",
"a  c #545D79",
"s  c #595F7B",
"d  c #546077",
"f  c #56627C",
"g  c #59637C",
"h  c #5C6A7E",
"j  c #565D82",
"k  c #585D83",
"l  c #576181",
"z  c #5B6483",
"x  c #5D6B81",
"c  c #5E658A",
"v  c #5E698C",
"b  c #5F6890",
"n  c #616E85",
"m  c #61678C",
"M  c #626B8D",
"N  c #637286",
"B  c #65738B",
"V  c #6A748D",
"C  c #67798B",
"Z  c #6A798D",
"A  c #646B91",
"S  c #667692",
"D  c #6B7593",
"F  c #6C7C93",
"G  c #6E749B",
"H  c #6E7C99",
"J  c #707692",
"K  c #717E95",
"L  c #70779B",
"P  c #727D9C",
"I  c #6F7CA1",
"U  c #737CA1",
"Y  c #6F8096",
"T  c #718196",
"R  c #74839B",
"E  c #78859E",
"W  c #788A9E",
"Q  c #7584A1",
"!  c #7986A3",
"~  c #7B8AA3",
"^  c #7C84AA",
"/  c #7D8CAB",
"(  c #7F90A6",
")  c #7E8DB1",
"_  c #808DA7",
"`  c #818EAB",
"'  c #8191AC",
"]  c #838DB2",
"[  c #898EB7",
"{  c #8594B4",
"}  c #8994B5",
"|  c #8698B5",
" . c #8999B6",
".. c #8796B9",
"X. c #8896BA",
"o. c #8798BB",
"O. c #8998BA",
/* pixels */
"2 2 4 2 2 - 4 4 2 - 2 2 2 2 - 4 2 2 2 - - 1 3 3 4 4 4 4 4 4 2 2 2 2 2 2 2 4 - 2 4 2 - 4 - 2 2 2 2 4 2 - 2 2 2 4 - - - 1 1 3 4 1 ",
"o 3 t p p p t p p p p p p p t p p p p t t q 0 % + . O 3 q p p p p p p p p p p p p t p p p p p p t p p p p p t p p p t t 5 & O o ",
"4 x ! } } } } } } } } } } } } } } } } ..] ! M 7 O @ 3 z R { } } } } } } } } } } } } } } } } } } } } } } } } } } } X.{ _ L e + O ",
"n W { X. .O.} X.O. .O. .} X. .O.} X.X...O.} ! n 5 , z ! { { X.X.O. .X.} } O. .O. .O.} O.O. .O. .} O. .O. .O.} O.O...X.X.' H e X ",
"D ' | ..| o.............| ....| ........o.o./ F 8 5 V ( o.| ..............| ..| ....| ..........| ......| o.....o.o.o.o.} E f O ",
"D ` ......o...X.........X...o.o.......{ o.o.( D 7 6 B ' O.o.X.X.............o.o.................................X.} X.o.{ E f X ",
"F ' X...................X...........X.X.o.o.' F 7 6 Z ' O.O.o.X.....} o.............................X...........X.....o.| R f @ ",
"F ` { ..............................X.X.o.X./ F 6 6 B ~ { o.o.o.....................................................| ..{ E l @ ",
"S R / X...X.....X...O.O...o.o.o.X.......o.] R C 7 6 n R / o.o.o...X...o.O.....o.o.o.o.X.X.X.X.X.X.X.X.O.o.o.} o.X.......! F l @ ",
"f v Q ` / / / / / / / / / / / / / / / / / ! B g 4 3 l S ! ] ` / / / / / / / / / ` / / / ` ` / / / / ` ` / / / / / ^ / ~ D x e @ ",
"3 f n n n n n N N N N n n N n n N N B N B B l 4 . % 3 s M N n n N n n N N N N N N N B B N N N n n n n n n n n n n N n B v 7 % O ",
". : : 1 # : & & * @ = = 3 : = : : : : ; ; , &   O + . : , : & & # # & : = : = : 1 & & & # 3 # & & # & & & & & & # = @ : : @ O O ",
"X 6 l A A m A b A m z e X . . % 6 k A A A A A A m A m m m c m A M A A j 5 . O O & p c A A A A b M A A m m A A A A A m m p 3 $ O ",
"e V ) | o...o.o.O.X.` F 8 # + q M ~ { o.[ X.X.X.} } O.} X.o.o.o.o.o.o.! m 6   : p U ) ..o.....o.o.o.o.o.o.o.o.o.o.o.o.} P a & O ",
"V _ } X.X.X.X.X...|  .' Z 6 6 M ~  .| { o.X.{ O.} } O.[ ....X.} X.X.} { / x > r J { X.X.O.{ ..} X.{ X.X.} o.} X.} o.{ | ' P j % ",
"D ` } X...} X.X.o.o. .' Z 7 5 n ' X...X.X.o...O.O.X.X.X.......X.X.X.X.} ~ x > e F X.X.X.......X.X.X.X.X.X.X.o.} X.o.X.O.{ R s % ",
"D ` ..........X.....o.` F 7 3 B ' O.o.X.} X.X.........................O.~ n & u F { ..........X.............X.....{ ..X.{ R a @ ",
"F ' | ..............o.{ K 6 6 V ' O.o.X.X.X...................X.......} ( n & u F X.o...........X...............X.X...o.{ E l @ ",
"D / { ..........O.o.../ Z 6 4 V ~ { X.X...............o...............{ W x & u F { X.X.{ ............X.{ X.......X.O...) R g @ ",
"B K ^ ..........{ ..) H Z 7 4 n Y / ..X...............| X.......{ ..{ W Y h 3 u S H ] ........| ....X.{ ..X...X...{ X...R S l @ ",
"u n P E E Q Q W Q ! Q M u & & u B T Q E Q Q E Q W R Q Q ! Q Q R Q ~ ! F x 8 X 5 i B Y Q Q Q Q Q Q E Q E E Q ! Q Q E Q R F d 7 @ ",
": u f g g g f f j z l i : O + & e z g g s s d d f g g g g g g g g g f s e @ . . : a d d s s d g f d f f g g d g f g g g l 6 % O ",
". : : X : O * : & , 0 5 & & 3 3 5 5 , 5 3 3 5 5 : : : = = @ # @ @ , 5 6 , % & & & 5 5 5 3 3 3 3 5 3 3 3 : ; : = # # + & 3 % O O ",
"= r 6 O O O 6 z I I U U U U L L P H G U U U U P Q U G m 6 X O @ 6 z G H H P P U P U U P U U U U U P U U Q H S t # .   % j 0 % O ",
"a J D p X < N ~ o.o.{ ..O.X.} X...[ o.o.| o.o...o...{ / n 7 @ 6 x ! { O...o.O.X.O.o.o.X.X.| o.o.....o...o.X.' F u & 0 c U c 5 X ",
"D _ } P ; l Q | o.o.| | O.{ | O.....o.X.X.X.X.X.....| | R g = a Q { | ..| ..} X.X.X.X.X.X.X.} X.X.X.X.X...|  .( C 5 k [  .P l @ ",
"D ' } P & l ! o.....o...............o.X.........X...X.{ E h & s E | { X.X...X.X.X.{ ......................o.X./ C 3 s X.| R f @ ",
"F ' O.U & z ! O.X.X.................X.X...X.....X...| } E x & f E  .o.o.....X.X.X.......X...................X.' C 3 j O.o.Q j @ ",
"F ` o.U 3 l ! o.X.................X.o...X.......| ..o.{ ~ g & f Q { O.O.................X...........X.X.X...X./ V 5 k O.o.Q j @ ",
"D ~ ) D # l R ` ......X.X...........o.| ........X.o.../ T x & f H / X.o.............................X.{ X.o.{ Q Z 3 p ` ] Y l @ ",
"n D S g o d C P { { ....{ ......] ..{ { { ..{ { { { { U V g & a V Q ] o.{ ..[ { ....{ { { { { ..{ ..{ { { ..^ D N 4 6 D D B d @ ",
"7 c a : o 3 a A F F F F F F F T H H F H P F Y Y H P H S d > O 3 y V R Y F F H F F Y F Y H F P T F K F F F F F x 6 X @ 7 x a : O ",
"@ 8 3 . . O 3 u u u u e u i u u i u u e r r r r r t i t 3 + + + , r t r r u e u e r u u u 8 r r r r r r u r u 7 @ O O % e 4 . O ",
". : > 5 5 , 3 6 6 5 5 5 5 5 6 5 5 : & O . O . : , < , 5 5 5 6 3 5 6 6 , 3 3 5 5 5 5 3 5 5 5 6 5 # O O . . # 5 6 , 5 5 : 5 @ O O ",
": g U ] { ] ] ] ] { { ) ] ] ] ..] Q v & . O , c ^ ) ] [ [ [ ] ] ] ] ] ] ) { ] { ..) ] [ { ] ] P l 4 @ O & k U ] [ ] { _ D < . @ ",
"n E { ....{ X.X.......X.| ..o.o.o.) ! z > 5 x Q { o.X.} O.} { { X...[ o.........| ....X.X.X.| { Q m 5 : z P } X...o.X.{ ( S e @ ",
"J ` } O.X.X.o.o.{ O.X.X.O.} } } X.O.] V > 8 D | | | o.O.X.X.O.O.o.X.o.o.X.X.O.X.X.X.X.O.O.X.| | { F 7 4 V / X.} { } } X.| R l @ ",
"V _ X.O.X.X.X.X.O...X.O.X.o.X.{ X.o.` B 6 6 V ) ....| O.o.o.X.X.O.X.X.X.X.X.X.X.X.o.X.X.X.o.o.{ ' D 7 3 B _ X.X.{ } } X...E f @ ",
"J _ { o.X.o.o.o...X.X.X.X.o.....X.o./ S 6 8 H ' ..X.o.o.o.X.X.o.X.o...o...X.X.X.X.X.X.o.} o.O.{ _ F q 4 B _  .O.} X.O.O. .R f @ ",
"B K / X.} X.X.} X.X.X.} X.X.O.O.X./ P M < 7 B Y / X.X.X.} X.} X.X.X.} X.X.X.} X.} X.X.} o.}  ./ T B 8 6 N K _  .o.X.O.' W D f @ ",
"a n T ~ ~ ~ ~ ~ ! ! ! ~ ~ E ~ ~ ! T M i & 3 i B P ~ ~ ~ W ~ ~ ~ ~ ~ ~ ~ ~ ~ ~ ~ ~ ~ ~ ~ ~ ~ ~ T N d , & a n K ! ! ` ~ R Z g e O ",
"4 a x x x x x x n m h n x h c x x x a % . + + s z m h n x x x c x x x h x x x x x x x x h x n x f = . O ; u h n x n c x h 6 $ O ",
". # 3 & : & : & 5 & & 5 : & & & , , & % % % & & 5 & & & & & : & , & & & & & : : & % & & # : : & : @ % % % & : : & & & & : X O O ",
"@ 8 m L I G G I G G G G L G L G G G G L L G L L G G G U L G L L G G G G G L D A p % + $ : t A G G G G G G G L L I G I G l 5 O @ ",
"u D [ X.[ X.X.X.O.X.O.O.O.X.O.O.O.X.X.X.X.X.X.X.O.O.O.O.X.X.X.X.o.X.X.O.O.O.{ / G q + : a L { X.o.o.X.X.O.o.X.X.o.o.o.{ ! c 6 O ",
"B ` ..X.X.o.X.X.X.X.X.X.X.X.X.X.X.X.X.X.X.X.X.X.X.X.X.X.X.X.X.X.X.O.o.X.O.O.} { / M 4 8 D '  ...X.| o.X.X.X.X.o.......| { R j @ ",
"D ' X.X.X.X.X.X.X.X.X.X.X.X.X.X.X.X.X.X.X.X.X.X.X.X.X.X.X.X.X.X.} X.X.} } { X.X._ V : 8 H { { X.X.X.X.X.X.X.X.X.......O.} Q j @ ",
"V ` X.X.X.X.X.X.X.X.X.X.X.X.O.X.X.X.X.X.X.X.X.X.X.X.X.X.X.X.X.o.o.X.X.X.} } X.X./ n 4 8 D { X.X.X.X.X.X.X.X.X.X.X.{ { X...Q j @ ",
"Z _ } O.o.o.o.o.X.o.o.o.o.o.X.X.o.o.o.X.X.O.o.o.X.X.X.X.o.o.o.X.o.o.X.O.X.o.X.o./ N : 8 D { ..o.X.X.X.X.O...O.o.X.{ } X.X.E s @ ",
"J ~ { o.X.O.o.o.X.X...O.o.o.X.X.o.| o.X.o.o.o.o.X.o.o.o.o.o.X.X.X.o.o.O.X.X.X.X.^ B > r F / ..o.o.o.X.O.X.X...o.o.o.X. .' T d @ ",
"n F ~ { } { { { } { } { { { ..{ { { { { [ { { { { { [ ..{ { { { { { { } X.X.' ! H n , 8 n H / { { { } ..'  .{ { } X.} ` R C f % ",
"t x F T T R T P P R T R T R R P R E T T R R T R T R T R R T R R R R R T K R P F x 0 + : e N F R R T R R R R R R R R P T B a 0 O ",
": 9 s i a a a a a i a s d s d s a a a s d d d d a a a i s a s i u s a i a a a s w O O . + u s a s a i a a d a d f f a s a 5 O @ ",
". # 3 5 5 , 5 5 5 5 5 0 5 5 6 , 3 + o . X @ : 5 5 5 5 0 5 5 5 5 5 5 5 5 5 0 5 5 5 5 5 5 5 5 5 6 5 : & O X X X : , , , 5 3 X O O ",
"1 a G ^ ^ ^ ^ ] ^ ^ ^ ^ ^ ^ ^ U S e @   @ 7 n L ^ ^ ^ ^ ^ ^ ^ ^ ^ ^ ^ ^ ] U ^ ] U ] ^ ^ ^ ^ ^ ^ U m e @ O @ 8 M ! ^ ^ Q m 6 @ O ",
"s P { X.o.o.X.O.o.o.O.o.o.o.o.o./ S r @ 7 B ~ } o.o.O.O.o.o.X.O.O.O.o.o.X.X.X.O.O.O.X.X.o.o.o...| / B w % e B ~ ......../ S q @ ",
"V ' X.X...X.| ..X.X.o.X.X.......} ! z : a Q  . .....X.X.| ......o.X.X.X.X.{ X.X.X.X.X.....X.o...O.{ Q l & f E  .| o.X.o.{ Q k @ ",
"F ' { X.X.X.o...X.X.} O.X.X..... .! z : a R { ....X.X.X.X.X.X...X.X.X.O.X.X.X.X.X.X.X.X.| } o.} O.} Q l , f E  .....} o.X.Q k O ",
"V ` X.X.X.O.O.O.X.X.X.O.o.} { ..X.! g # a R X...X.O.X.X.O.O.X.O.O.X.O.X.O.O.O.O.X.O.o.o.o.O.} { X.{ R s # f W O...] { X.{ E l + ",
"Z _ X.o.o.o.X...o.o.o.o.o.o.} o. .~ g : a R { ....X.o.o.o.X.X.X.X.o.o.o.o.o.X...X.o.o.| o.o.X.} O.X.E g & f R | ......o.O.E d @ ",
"K E ` X.| o.o...| { ....o.X.X.} ' T h : d Y ~ | ..X.X...| o.o...o.| o.| X.......| o.........X.X.} _ T g : z Y / } X.X. .` T d X ",
"n B ! { ' { { { { { { { } } } ` T V g : u x Y / { ' { { ' { { { { { { ' { { ' { { ' { { { { { | ` T B d : i N Y ' { { ( T N f + ",
"7 h Z Z F F Z D F F F Z F D D Z N y ; @ = 9 B F Y D Z Z F F F F D Z F D F D F Z F F D F Z Z D D Z N r : O * r C F K D C N e ; O ",
"% 7 w e w e e e w e e e w e e e e <     . : e w e e e e w e w e e e e e w e e e e e w e e e e e e e ,   O   : e e e w e t ,   @ "
};
