/* XPM */
static char *result[] = {
/* columns rows colors chars-per-pixel */
"64 64 117 2 ",
"   c #13131E",
".  c #141324",
"X  c #181527",
"o  c #15142B",
"O  c #19172D",
"+  c #16192F",
"@  c #19182C",
"#  c #161531",
"$  c #191732",
"%  c #171831",
"&  c #1C1A35",
"*  c #1E1C3C",
"=  c #201E37",
"-  c #201E3D",
";  c #23213D",
":  c #212939",
">  c #1E1C43",
",  c #211E43",
"<  c #211E49",
"1  c #1F2042",
"2  c #232144",
"3  c #292546",
"4  c #25234B",
"5  c #29254C",
"6  c #29284E",
"7  c #272350",
"8  c #292552",
"9  c #2C2854",
"0  c #2D2758",
"q  c #2D2B5A",
"w  c #302C57",
"e  c #312D5D",
"r  c #33325F",
"t  c #2F2C61",
"y  c #322E63",
"u  c #322E69",
"i  c #353164",
"p  c #3A3467",
"a  c #35316B",
"s  c #3A346C",
"d  c #3D396C",
"f  c #363372",
"g  c #3C3572",
"h  c #3D3976",
"j  c #3D367A",
"k  c #3E397C",
"l  c #413C76",
"z  c #413B7D",
"x  c #3F4647",
"c  c #3F454D",
"v  c #3E494D",
"b  c #404646",
"n  c #454C4D",
"m  c #484F4E",
"M  c #49514C",
"N  c #444D53",
"B  c #484E55",
"V  c #464D5A",
"C  c #4A5155",
"Z  c #4D5264",
"A  c #4F556C",
"S  c #515766",
"D  c #52566C",
"F  c #555A6D",
"G  c #43407E",
"H  c #535771",
"J  c #565C71",
"K  c #585D73",
"L  c #536060",
"P  c #5B617B",
"I  c #3E3682",
"U  c #3F3A81",
"Y  c #413B82",
"T  c #423C89",
"R  c #454284",
"E  c #494485",
"W  c #464887",
"Q  c #4B4981",
"!  c #464489",
"~  c #49458A",
"^  c #47488A",
"/  c #4C498C",
"(  c #514E8E",
")  c #4A4791",
"_  c #4E4B92",
"`  c #514D93",
"'  c #534F98",
"]  c #545294",
"[  c #595695",
"{  c #56549A",
"}  c #5A569C",
"|  c #57599A",
" . c #5B5B9D",
".. c #615D9D",
"X. c #5D619E",
"o. c #666D84",
"O. c #686F87",
"+. c #62629F",
"@. c #5A57A3",
"#. c #5E5DA1",
"$. c #615EA3",
"%. c #625EA8",
"&. c #5E61A3",
"*. c #6263A4",
"=. c #6B67A6",
"-. c #6568A6",
";. c #696BA6",
":. c #6565A9",
">. c #6967AA",
",. c #6669A9",
"<. c #6A6DAC",
"1. c #6970A5",
"2. c #6C70AD",
"3. c #6C6EB0",
"4. c #716FB3",
"5. c #6D70B1",
"6. c #7070B2",
/* pixels */
"L N F J J J J J F P J J J F J F F J J F S C n m F J J J J J F J F P J J J F J J P S m M M C J J J F J J F J J F J F F F J J K H ",
"N : h z Y R R R E G E R E E E E R R G G d 3 % ; h E E E R ! E R E G E R E E Y E G i 1 X @ ; k G Y R R R R ! R E E E E ! E E R U ",
"A f U R ^ :.#.:.*.:.*.:.*.*.*.*. .^ U z j > 4 g G ] &.*.&.:.&.:.*.*.:.:.:.*.:.*._ U u * . * j U U ! &.*.-.&.&.-.*.:.*.*.&.&.^ U ",
"J U U / @.3.<.<.1.<.<.1.1.<.<.<.;. .~ z k * 5 Y | -.2.<.1.<.2.<.1.<.<.1.<.1.<.;.&._ h 1 . * h G ^ | 2.2.<.<.2.<.1.<.2.<.5.1.&._ ",
"H z U } ,.3.<.<.<.<.1.;.2.2.<.1.2.<.] z I - 7 ! -.2.5.<.2.<.<.1.<.<.2.;.<.<.<.1.3.#.j * . = k Y ] ,.3.<.<.<.<.<.<.1.<.<.<.1.;.#.",
"H Y U  .3.<.<.<.1.<.2.<.<.2.<.<.2.1.] z k * 7 ~ ;.2.1.<.1.2.<.<.<.<.1.<.<.1.<.<.3.#.j * . * j z ] 5.3.<.2.;.1.<.<.<.<.1.<.2.<.#.",
"H Y U  .4.<.3.<.<.<.<.<.<.<.<.2.<.<.] z U * 7 E ,.2.<.<.<.<.<.<.1.<.<.<.<.<.<.2.3.#.h * . * z k ] 3.<.<.;.<.<.<.<.<.<.<.<.<.<.#.",
"H z U ~  .>.4.3.2.2.2.<.<.<.2.5.:.| ^ z U * 7 ^ ,.1.1.<.;.<.<.1.<.<.2.<.1.2.1.<.3.#.h * . * z Y ! } <.3.5.<.2.<.<.2.2.<.2.<. ._ ",
"H Y Y j ~ $.$.#.#.#.#.#.&.#.#.&.| ^ k h U * 7 R  .;.2.3.<.2.<.<.2.2.1.<.<.<.<.2.:.} l * . * k Y Y / } #.#.#.#.*.&.&.#.&.#. .^ Y ",
"H Y Y z Y E Y Y R Y R Y Y R Y R R U U z U ; 7 Y ! | >.<.:.:.>.=.,.,.>.>.=.=.>.>.] Y j * . * k Y Y Y Y R Y R Y Y R Y Y R Y R Y T ",
"H Y Y Y Y z k Y U z Y z Y z z Y Y z G k U * 7 Y k ^ ^ / ~ ^ ~ / / ^ ^ / ~ / / ~ Y Y g - . * h U Y Y Y z z Y Y z k Y Y Y Y Y U Y ",
"H Y Y Y Y Y Y Y k Y z Y z Y z R R Y U k k * 8 Y U Y Y k z Y Y Y Y Y Y Y Y Y Y Y I Y j - . * k U Y Y Y z Y z U z U z z z z Y U U ",
"Z p z Y Y Y Y Y R U Y Y Y U G U G U U j a & 7 U U Y Y Y Y Y Y Y Y Y Y Y T Y Y Y Y Y g > . % a j Y Y k Y Y Y Y Y Y Y z Y U z Y k ",
"w @ g l h k h k h h h k k j j j j j k t & . 5 g j j j j j j j z j l j j z z j z g g i * . o * q z j j g j g k h h j z j k j h q ",
"x % - - - - - > * * ; - 1 * * 1 * * > & . . $ - * * * , , - > < = = , , , 2 , - , , * @ . . . & > * * * , , - & & - , , * - , * ",
"V 9 8 6 6 8 6 6 8 5 $ & 8 8 8 8 7 5 9 9 9 9 9 8 8 7 6 9 7 7 7 6 O . $ 4 8 8 6 8 8 8 8 9 9 8 6 9 8 5 6 5 9 9 8 & $ 6 9 8 8 8 8 , ",
"F Q ^ / _ / ) R Y Y < 6 z Y ^ ) ^ ) ) / ) ) ) / ) ) ) / U z Y l * . * j T Y T ~ _ / / ) ) ) ) ) / ~ W / ~ T z 9 < z U ! ) ) Y i ",
"o.;.>.>.;.;.;.] Y z ; 3 U ! | ,.<.,.:.<.,.-.:.<.:.:.<.&.^ Y Y h 1 . * h z z ~ #.:.,.<.>.,.<.<.:.-.-.+.;.} Y z 6 = h G ] =.=.` z ",
"O.4.3.3.3.3.<.=.[ Y - 5 Y @.:.5.5.3.<.<.<.>.<.<.3.3.3.<.*./ Y k * . * h Y / &.3.<.<.<.<.>.<.3.<.<.<.6.2.*.+.G 6 * G { :.<.3.:.} ",
"o.<.<.<.<.<.<.4.*.T - 4 ~ =.5.<.,.<.<.<.<.3.<.<.<.<.3.<.2.] Y k * . * j k ] <.3.<.<.3.<.<.<.<.<.<.<.6.<.;.<.! 8 * k &.<.3.<.<.$.",
"o.<.3.<.3.<.<.:.[ Y 2 4 T  .<.<.<.:.<.<.<.<.<.3.<.<.3.3.3.` Y l * . * j k ] 5.3.3.<.<.<.<.3.<.<.<.<.3.<.=.#.Y 8 2 z [ :.3.3.*.{ ",
"o.:.3.<.<.3.3.{ Y j 1 8 Y ! } <.3.:.3.3.2.3.<.3.3.<.3.<.3.` I l * . * h Y ` =.<.<.3.<.3.<.3.3.<.3.<.3.>. .~ Y 8 ; k Y { =.<.` Y ",
"K / / / / / / T z k , 8 Y z R / ) / / / / / ^ / / / / ~ / R Y j * . * h Y ~ / _ / / ) / / / / / / ~ / / E z Y 5 - k k R / ^ R k ",
"A U I Y Y Y Y U Y l 2 8 z Y Y k Y Y z z I Y Y U z Y Y Y Y Y Y z * . * k Y Y U k U z U k z Y Y Y Y Y Y Y z Y z 5 - h Y Y Y U U z ",
"K z z h j z z Y z e , < a z z z k j z k Y Y Y Y j j z z k z Y h - . * g k j z z Y Y k Y Y I I Y Y z z z T Y a 2 & a z Y T Y Y Y ",
"F h Y Y Y Y Y j y - o $ < j Y I Y Y k l l z Y Y Y Y Y z Y z z s - . * j U Y I z k k k z z Y T Y Y Y k h l s 4 # o , y l z l I Y ",
"B < * , - - - , & .   X o & - - - , , , - - , , - - * - , > > > O . O * - , - - * > * 1 * - = - , , ; - , & # . . o - < > > , > ",
"x o 4 8 7 7 7 7 7 5 3 3 5 7 7 4 7 7 < , X   X o < 7 7 7 7 7 7 8 4 3 4 7 7 7 7 < 5 5 ; o     . 2 5 7 5 4 4 4 6 5 < 5 7 7 7 4 5 5 ",
"N - j k Y ^ ^ ! ~ E E E E E ! ! E E z i , X @ 3 j T ! ! ! ~ ! ^ E E ~ E E ~ ! E R R s 7 # o 1 i Y ~ E E E G E E ! R E ~ E R k Y ",
"D j U z / :.,.:.:.:.,.-.,.:.-.-.:.:.] z f = < z Y } :.:.:.,.:.:.-.-.,.-.=.:.-.:.,.X.R j 7 * f k ' :.:.:.-.-.-.-.:.,.:.;.,.*./ R ",
"H Y Y ` *.<.3.<.<.<.<.<.<.<.<.<.<.<.*.[ U - 7 T  .:.<.<.<.<.<.1.<.<.<.<.<.<.<.<.<.-.| ! 7 * k ] :.<.5.<.<.<.<.1.<.<.<.<.<.1.*.] ",
"H z Y  .5.<.5.<.<.<.1.<.<.<.<.1.<.<.6.+.Y * 7 ~ <.3.<.<.<.<.<.<.1.<.<.1.<.1.<.<.<.2.-.^ 7 * U #.3.<.5.<.1.<.<.<.<.<.1.<.<.<.<.#.",
"H Y U ] :.3.3.<.;.<.<.<.1.<.<.<.<.<.=. .Y , 7 ~ #.<.3.<.2.<.<.<.<.<.<.<.<.1.2.<.<.<. .! 8 * k | ,.<.5.<.<.<.<.<.1.<.<.<.<.<.*.{ ",
"H U U R ] :.<.<.<.<.-.<.;.<.>.,.;.,.} R j - 7 Y W @.:.<.,.,.<.>.;.;.<.,.-.;.;.;.,.X.W z 8 * k R | ;.<.:.>.=.;.<.;.;.;.<.;.;.] ! ",
"H k U U T _ _ _ _ ` ` _ _ _ ` ` _ ` T Y k * 7 T I ! _ ` _ ` _ ` _ _ ` ` ` _ _ _ ( ~ U k 9 * j Y ^ ( ( / _ _ _ ` _ _ ` _ ` / R k ",
"J z Y Y Y U z Y Y z Y Y Y Y k Y Y Y Y T k - 5 U U U Y Y Y Y z Y Y Y Y Y Y Y Y Y Y Y T z 6 * k Y Y U G U Y Y Y Y Y Y Y Y Y U U U ",
"S p z Y Y Y Y Y Y Y Y z z Y Y Y z Y Y I u * 2 a Y Y Y U Y Y U Y Y Y Y Y Y Y Y Y Y T Y f 4 & a U T I U Y Y Y Y Y Y Y z Y Y Y Y Y ",
"N < j z z k z z z z z z z k z z z z z u > X X 2 k z z z z k z z z z z z z z z z z h g 7 # O < y z Y k k z k z z z z z k z z k k ",
"b o , 3 4 4 4 4 4 < 4 4 4 4 5 2 4 4 < - . . . X 2 4 4 4 5 4 4 4 < 4 4 4 4 4 4 < 4 4 2 # . . o * 5 4 4 4 4 4 4 4 4 4 4 4 4 5 5 2 ",
"B 2 2 , , 2 , 2 & .   . @ > 1 2 , , 4 4 ; 2 2 ; , 2 , , > 1 * o     . . * 2 2 2 2 2 2 2 2 - 2 1 , < 2 > , - o . . . 1 2 2 1 1 2 ",
"K ^ R R ! R R Y i = o % 2 g Y R E R R R R R R R R R ! R R U a > .   X - y z / ! R R R R R R R R R R R R E j < O . - i Y ! ! k U ",
"P &.:.:.:.:.:.] k i * 2 p Y { *.*.*.:.:.:.:.:.:.:.:.:.:.,.` k r = . - y Y ` %.*.:.:.:.:.:.:.:.:.:.:.:.:.{ Y s 2 = a Y ' :.*./ U ",
"O.2.3.2.3.3.5.&.{ z < 7 E { ,.3.<.:.3.3.<.3.<.3.3.<.<.3.2.&.] h - . - j ' %.3.<.<.5.<.5.5.5.<.3.2.5.3.5.>.@.E 6 , k ' :.<.<.X.` ",
"O.2.3.<.<.3.5.3.%.U , 5 R :.5.<.<.<.3.<.<.<.<.3.<.3.<.3.<.<.$.h * . * k ..3.6.=.<.3.<.<.<.<.3.3.<.<.3.>.3.3.^ 4 , Y %.3.<.;.<.$.",
"o.6.3.<.<.<.<.>...z - 3 ! &.<.5.5.3.<.<.3.<.<.<.<.3.<.<.<.<...l * . $ z } =.4.<.<.<.<.3.<.3.<.<.<.3.3.;.=.%.E 5 * z ..=.<.<.;. .",
"o.3.3.<.3.3.5.[ Y z * 3 Y ^  .<.5.<.<.2.3.3.3.3.3.3.3.3.<.[ Y h - . * f Y ` =.=.<.3.3.<.3.3.3.<.3.3.3.;.$.T Y 5 * z Y [ =.=.` T ",
"P ] ` ` ] ] ` W Y Y > 6 U U ^ ] _ ` ] ` ` ` _ ` ` ` ` ` ` E I z * . * j Y ~ ] ] _ ] _ ] ` ` ` ` ` ` ] ( ) Y Y 5 , k Y ~ ] ( E Y ",
"J Y I k k k k U Y k < 9 z Y Y Y k U U U k k U U k z k z I z Y z * . > j Y Y Y z z k k U k z k I k k z z Y Y Y 7 , k Y Y Y Y Y Y ",
"H Y Y Y U Y Y Y z p , 4 d z Y Y Y Y z z Y z Y Y z Y Y z Y z k y * . , a Y Y Y z z Y z Y Y z z Y Y Y z Y Y Y g 4 & g z Y Y z Y Y ",
"H Y U z G U Y Y s ; X # 5 h Y E R Y U Y Y Y z Y Y z z Y z z a > . . o - a Y Y Y Y z Y Y z Y Y z Y z Y Y Y z 7 # X , a Y Y Y Y Y ",
"V 2 5 5 4 4 4 7 ; . . o O 2 5 2 5 2 2 5 6 2 6 3 2 5 5 5 6 5 > o . . . o - 3 3 4 6 4 6 2 5 3 4 4 4 4 6 5 4 2 # . . o - 5 4 4 4 8 ",
"v o > 4 4 > > 1 1 , , 2 , > 2 > , < 1 2 2 O . . . $ 2 1 , 2 2 > , , , , , < , 2 > 1 2 O . . . & 2 2 ; , , , , , , , < , , 2 2 * ",
"c % a z k j G G G z G G R z G G z G G z g < $ o > q h E z G G G Y z G G G G G z G h s 7 $ o , e l G G G G G G G G G G G R z h y ",
"c $ k Y k ! | &.*.*.*.*.*.*.*.*.*.*.=.@.Y j 6 $ y j _ @.:.*.*.*.*.*.*.*.*.*.*.+.:.@.U g 3 $ u j _ #.:.&.&.&.*.*.&.*.*.*.*.&.^ j ",
"c O h k ! | -.<.1.<.<.1.<.<.<.;.<.1.6.%.T Y q $ h I _ <.2.1.<.<.;.<.<.<.<.<.<.<.2.#.T Y 9 - j U ' 3.<.2.2.<.<.<.<.<.<.<.<.;._ U ",
"c O j Y ` :.3.<.<.<.<.<.<.<.<.2.<.<.;.*.` Y 0 * h ^ { 2.1.,.<.<.<.<.<.<.<.<.<.<.<.+._ Y 8 = z ^  .<.-.;.<.<.<.<.<.<.<.<.3.<.{ ~ ",
"c + j k _ >.<.<.3.<.<.3.<.3.>.3.3.3.>.=.=.~ q & z } >.<.<.3.4.>.<.6.<.<.3.<.3.<.=.=.=.~ 9 * z  .<.3.3.<.>.3.<.<.<.<.3.<.3.3.:.} ",
"c % j k _ <.3.>.<.3.<.<.3.<.3.<.>.4.<.<.;.~ q & k } 3.<.<.<.<.<.<.<.3.<.<.3.<.3.4.=.>.Y 8 = z  .<.3.<.<.3.<.3.3.<.<.<.<.<.<.>.#.",
"c @ h k _ <.>.4.3.<.3.<.3.5.3.<.4.>.=.=.[ E 9 & k / $.<.3.3.>.4.<.<.3.<.3.5.3.3.=.=.' Y 0 ; k / $.3.<.3.3.3.<.<.3.<.5.2.3.2. .` ",
"c @ j z ~ $.$.$.$.*.&.*.&.#.&.#.$.$.$.[ E Y q & h k / $.$.#.$.$.$.*.*.#.&.#.#.#...[ Y Y 9 * k k / $.$.$.$.$.$.$.*.#.*.#.*. ./ U ",
"c $ k Y Y T T Y Y T Y Y Y R Y R Y T Y Y z Y 0 $ j z Y Y T Y Y Y Y T Y Y Y R Y R Y Y z z 0 $ j Y Y Y R Y Y Y T Y E Y Y T Y Y z U ",
"c % j Y Y z z Y Y Y Y Y Y Y Y U Y Y Y Y Y Y 0 = j Y Y Y z Y Y Y Y Y Y Y Y U U Y Y z T z 0 * j Y Y Y U Y Y z Y Y Y Y Y Y Y Y U G ",
"v $ j Y T T T Y T Y Y Y Y Y Y T T Y z z T z 0 - z Y Y Y T T T Y T Y Y Y Y Y Y T z z Y l 8 , Y Y Y Y Y Y T T Y Y T Y Y Y Y U U g ",
"v . a g a l a g l g g g g g g g a y l l a l 5 = a g g g a l a g g l g g g g g g l y l l 3 - s g g g s j g g g g g g g g f g d q "
};
