/* XPM */
static char *result[] = {
/* columns rows colors chars-per-pixel */
"64 64 110 2 ",
"   c #0F131D",
".  c #14131E",
"X  c #151326",
"o  c #181325",
"O  c #141820",
"+  c #191D25",
"@  c #151429",
"#  c #19142C",
"$  c #16182D",
"%  c #191A2C",
"&  c #141632",
"*  c #191533",
"=  c #161B33",
"-  c #181C35",
";  c #1B163A",
":  c #161A3B",
">  c #191B3C",
",  c #132035",
"<  c #192033",
"1  c #152139",
"2  c #1A213C",
"3  c #1E1744",
"4  c #171D43",
"5  c #1A1E43",
"6  c #1F174E",
"7  c #1B1D4A",
"8  c #211747",
"9  c #24174E",
"0  c #22194D",
"q  c #2D1E4D",
"w  c #241B52",
"e  c #2C1E53",
"r  c #1A2243",
"t  c #1C234C",
"y  c #1F2A4F",
"u  c #1D2453",
"i  c #1D2A52",
"p  c #1D255B",
"a  c #1D295A",
"s  c #20294E",
"d  c #222356",
"f  c #2F2052",
"g  c #222C53",
"h  c #222C5D",
"j  c #32225C",
"k  c #223057",
"l  c #22325B",
"z  c #2B1D61",
"x  c #1F2561",
"c  c #1E2C62",
"v  c #1E2D6F",
"b  c #1E2D70",
"n  c #1F3175",
"m  c #232D64",
"M  c #222C6A",
"N  c #322267",
"B  c #382661",
"V  c #36236D",
"C  c #38236F",
"Z  c #253264",
"A  c #293666",
"S  c #2C3A67",
"D  c #25336B",
"F  c #28336D",
"G  c #2B3C6D",
"H  c #232E75",
"J  c #372271",
"K  c #3A2371",
"L  c #3F2778",
"P  c #243375",
"I  c #283671",
"U  c #253A74",
"Y  c #2C3C72",
"T  c #233379",
"R  c #273B79",
"E  c #2B3D7B",
"W  c #303E72",
"Q  c #402977",
"!  c #472779",
"~  c #46297D",
"^  c #49287C",
"/  c #2E436F",
"(  c #2E4374",
")  c #2E437B",
"_  c #304273",
"`  c #31457E",
"'  c #324A7C",
"]  c #2B3E83",
"[  c #442A81",
"{  c #2E4583",
"}  c #2E4B85",
"|  c #2E468A",
" . c #2F4E89",
".. c #324582",
"X. c #324B84",
"o. c #324788",
"O. c #334E8C",
"+. c #345087",
"@. c #33508D",
"#. c #2D4591",
"$. c #2E4990",
"%. c #344E92",
"&. c #364F98",
"*. c #355194",
"=. c #385597",
"-. c #37549A",
";. c #39579A",
":. c #36599A",
">. c #39599C",
",. c #3858A0",
/* pixels */
"% + + O X O O O O O X O O O O O O . + . O O O O O O O O O O O O O O O O O O O O O O O O O O O O O O O O O O O O O O O O O O O + ",
"X X X X X X o @ o X X X X o @ @ @ o X X @ @ o o @ X @ o X X @ X @ X X o @ o @ X X @ o @ o X o @ @ X @ o X X X @ X o @ o o @ X . ",
"X & @ @ # X X X X @ X X @ @ o @ @ @ @ @ @ + X @ X @ @ o @ @ @ @ X o @ @ o @ o @ X o @ @ @ @ @ @ @ o @ o @ @ X @ @ o @ @ @ @ @ X ",
"X @ @ @ X X # # @ # @ # X @ o @ o @ X X @ @ X @ o @ X @ X X @ @ @ @ @ @ @ @ o @ @ @ @ @ @ o o @ @ X @ @ X @ @ @ @ @ @ o X X @ X ",
"X X @ X @ X @ X @ @ @ X X X X X X X X X X X X X X X X O X X @ @ X X X X X X X O @ X X X o X X o X X X @ X @ @ X X X X @ @ @ X X ",
"X X @ @ @ X X X X @ X X o o X X @ @ X @ @ X X @ @ o o X X @ @ @ X X X X @ @ @ @ X X X X X @ X o o X X @ @ X X X @ @ X X X X X X ",
"@ @ # X X X X @ X X X X X . X X @ X X X X X X X X . . o X X X X X X X . X X X X X X X @ X X O . . X X X X X X @ X @ @ X X @ X X ",
"X @ X X X @ @ X @   @ @ ; 5 = * = - - - - = - - - = - > * X . O X & - 5 - * - - - - - - = - = , - > # X X X X X X X X X @ X X X ",
"o @ @ X @ X X @ X X & t Z ) ( ( _ _ ' ' _ _ _ _ _ _ ` I h = X X & 7 D ( _ _ ' _ ( ( ' / ( ( ( ( ) I u : X X o X @ X @ X X X @ o ",
"@ @ o @ X @ X X X & u U } O.@.@.+.=.+.O.@.@.@.@.*.O.O.O.R c : = p P } O.+.*.@.@.@.@.@.@.@.+.@.*.*.o.R c : @ @ X @ X X X @ X X X ",
"@ o @ @ X @ @ X X : U | X.O.@.O.O.O.O.O.@.@.@.@.+.O.@.O.X.E y > R | o.O.O.O.O.O.O.@.+.@.O.O.O. .@.O.o.) 7 X X @ X X @ @ X X X o ",
"X @ o @ X X X X   : ] o.O.O.O.O.O.O.O.O.@.@.+.O.O. .O.o.O.o.s > E  .O.O.O.O.O.O.O.@.@.@.O.O.O.O.O.O.o...s X X @ X @ X X @ @ X X ",
"o o @ @ @ X @ @ o > ..O.O.O.O.O.O.O.O.O.O.O.O.O.O.O.O.o.O.O.g > o.O.O.O.O.O.O.O.@.O.O.O.O.O.O.O.X.o.O.O.s o X X X X X @ X X @ o ",
"@ @ @ X X @ X X X > ..%.X.O.O.+.O.O.O.O.O.O.O.O.O.O.O.O.O.o.g s ..%.o.o.O.+.O.O.O.O.O.O.O.O.O.@.O.O.o.X.s X @ X @ @ X X X @ X X ",
"@ o o @ X o X X O > W O.O.O.O.O.O.O.O.O.O.O.O.O.O.O.O.O.X.) s > W O.O.O.O.O.O.O.O.O.O.@.O.O.@.+.O.O.O...s X X X X X X @ X @ X X ",
"o o X X O X X X @ - h ] $.*.@.+.O.X.X.O.O.O.O.O.O.O.@.O.} D t : Z ] %.%.@.@.+.+.X.O.O.O.*.@.O.O.@.O.) D 5 X @ @ X @ X @ X X X o ",
"O . X X @ @ @ X X X 4 c R X. . . .+.X.o.O.X.+.+.X.O.O.{ D u * @ r c ) ' } +.+.O.O.+.+. .O. .X.O.X.) D 7 & X X X @ X @ X X @ X X ",
". . @ @ X X @ X o o @ 4 t g y g g k g g g g s k l k g i 4 @ X o & : y g y g g g g g i i i g g g g t : @ X X X X @ X X X @ X X X ",
"O = 4 r r 2 r r 2 2 2 r r r r r 2 5 > * X . o > 5 r r t r 2 2 2 4 r r t r r s ; : @ X X @ @ X   O @ @ X X @ X @ X X @ @ X @ X X ",
"& 5 D { +.} ' } X.X.X.X.X.X.X.o.o...E s X . = t Z ' X.O.o.O.X...} ' X.X.o.X.o...E t X X X X X   X @ @ X @ X @ X X @ X X X X X X ",
"i U ..O.@.@.@.@.O.@.@.O.O.O.O.@.O.O.} U d @ p I { O.O.O.*.%.@.O.+.@.O.O.O.O.O.O. .R t X X @ @ X @ @ @ @ X X @ X X @ @ X @ X X o ",
"Z { O.O.@.@.@.@.O.O.O.O.O.@.O.O.O.O.O.} D = D { O.O.O.O.O.O.O.O.@.O.@.O.O.O.O.O.%.| h X   @ X @ @ X X X X X X X X X X X X @ X @ ",
"G  .O.O.O.@.@.@.@.O.@.O.@.O.O.O.O.O.@.+.( = I O.O.@.O.@.O.@.O.@.O.@.O.O.O.O.O.O.O.O.A @   @ X X X X @ @ X X @ @ @ X X @ X X X o ",
"G O.O.O.O.O.@.@.O.O.O.O.@.O.O.O.@.O.@.@.G = Y O.X.@.O.O.O.O.O.@.O.O.O.@.O.+.O.O.O.*.G $ X X X X @ X X X X @ X X X @ X X X X @ @ ",
"G O.O.O.O.O.O.O.@.O.@.O.O.O.O.O.O.O.O.O.G = Y @.O.O.O.@.O.O.@.O.O.@.@.O.@.O.O.@.@.O.G $ X X X X X X X X @ X X X X @ X # @ @ X X ",
"Z { %.O.O.O.@.O.O.O.@.O.O.O.O.O.O.O.O.X.D 4 Z ..O.O.O.O.@. .O.O.O.O.O.@.O.O. .%.@.{ l * X X X X X X X X X X @ @ X X X @ @ X X X ",
"t D ..O.O. .%. .$.O.%.O. .O. .*.%.O.| I t : r D { O.O.*.%.@. .@.@.*.@.@.X.X.+.X.` D t &   X @ @ X X X X X X @ X @ @ X X X X X o ",
"* t Z ) X.X.} X.X.X.X.} X.} } } X.{ U t @ X * 7 A ) X.} X.X.X.} X.' ' ' ..o.O...T t & X   X X X X X X X X X X @ X X X @ X X X X ",
"@ & : r r r 4 r r 2 2 r r r r r r 5 ; @ O X X @ 4 r 4 r 5 r r r 2 = r r 2 2 2 < = X . . X o @ X X X X X X X X @ @ X X @ X @ X o ",
"o X @ X X X . X X X X X X   X X X o o o o O . X X X . X X X @ @ X X & 3 d e e e e e q q f e e q 9 e 9 3 # @ X @ X X @ X X X X X ",
"o o X X X X X X X X X X X X X X X X o @ X X X X X X X X X X X @ X * 7 z ! ~ ~ ~ [ ^ [ [ [ [ ~ ! Q L K V 9 @ @ @ X o @ X @ X @ X ",
"X X o @ X X X X X X X X X X X X X X X X X @ X X X X X X X X X   @ w J L ~ ~ ~ ~ ^ ~ ~ ^ [ [ ~ ~ ~ ~ ~ ! J 8 @ @ @ o X X X X X o ",
"X @ @ X @ X X @ X @ @ X X X X @ @ X X X X @ @ X X @ @ X X X X X # j ! ~ ~ ~ ~ ~ ~ ~ ~ ~ [ ^ [ ^ ~ ~ ~ [ L f * X X X X X X @ X X ",
"X @ @ X X @ X X X X X X @ X X X X X @ @ X X X X X X X X X X X . * B ~ ~ ~ ~ ~ ~ ^ [ ~ ~ ~ ~ ~ ~ ^ ~ ~ ^ ~ j # X   X @ X @ X X X ",
"X X @ X X @ X X @ X X @ X X X X @ X X X @ X X @ @ X X X X X X X # j ~ ~ ~ ~ ~ ~ ^ ~ ~ ~ ^ ^ ~ ~ ~ ~ ~ ~ L f # X @ X X X X X X X ",
"X X & @ X X X X @ X @ X X @ X X @ X @ X @ X @ X @ X X X X X X X @ w J ~ ~ ^ [ ~ ~ ~ ~ ~ ~ [ ~ ~ [ ~ ~ ~ J 0 @ X @ X X X X X X X ",
"@ o X X X X X X X X X X X X X X o @ X o X X o o X X X X X X X X # 6 z J ! ! ^ ^ ^ ! ~ ^ [ ~ ~ Q ^ ~ ! K z 3 $ X o o o o @ X @ @ ",
"X X X X X X X X @ @   X X X @ @ @ X X X X X o o X X @ @ @ X X   # ; w d K K J J C C C K K K K N V V N z 9 ; X X @ @ @ @ X X X X ",
".   X   X X X X   X @ X X X X X o o X X O O . X X X X   X   X . X $ ; 8 0 0 9 9 9 9 9 0 9 9 w w w d w 0 ; X X . X @ X X X o X X ",
"O X ; & @ & @ @ & X & & @ # $ $ * * # o @ @   & & & @ & $ # # @ $ $ > ; = - > ; * # @ X @ = = * % % $ $ # $ X $ $ * $ # * * o X ",
"@ 1 h W W _ _ _ _ _ _ _ _ _ ( ( _ W M ; X X @ 4 h W _ _ _ _ _ ` / / ( ( _ G W W m ; . . @ 4 a Y ( _ Y ( ( Y ( ( _ ( ( ( _ G m > ",
"4 c ] -.-.>.-.>.>.;.>.>.>.>.>.;.;.-. .M ; # 4 c ] :.-.>.>.>.,.,.:.;.;.;.,.>.,.-.#.m : X 5 D ..:.>.>.>.;.;.,.;.>.>.;.>.:.;.-.| h ",
"Z | -.>.;.;.>.;.;.;.;.;.;.;.;.;.;.;.;.o.c * c | ;.-.;.;.;.;.;.;.;.;.;.;.;.;.;.;.;.| x * M o.-.-.-.>.;.;.:.:.;.;.;.;.;.;.;.>.;.| ",
"Y :.,.;.;.;.;.;.;.;.;.;.;.;.;.;.;.;.;.=.) 1 ( =.;.;.;.;.;.;.;.;.;.;.;.;.;.;.;.;.;.:.Y : ` ;.>.>.;.;.;.;.-.:.;.;.;.;.;.;.;.-.-.-.",
"_ >.-.;.;.;.;.;.=.;.;.;.;.;.;.;.;.;.;.;..., ) :.;.;.;.;.;.;.;.;.;.;.;.;.;.;.;.;.;.;.E = ..:.>.>.;.;.;.;.;.;.;.=.;.;.;.;.;.;.;.>.",
"G &.,.-.;.;.;.;.;.;.;.;.=.;.;.:.;.;.;.&.I : F @.;.-.;.;.;.;.;.;.;.;.;.=.;.;.;.;.;.%.I = I *.-.-.;.;.;.;.;.;.;.;.;.;.;.;.;.;.;.&.",
"m ] &.&.*.&.*.*.*.*.*.*.*.*.&.*.*.*.&.] x * p ] &.&.*.*.*.*.%.%.*.%.*.*.*.*.*.*.*.] p & p { &.&.-.*.*.*.&.&.*.*.*.*.*.*.%.&.*.] ",
"u M T T P P R T P H I P P P R T T T H F p 3 s D ] T T P T T R P P R P P P T T T T F d 5 g M ] H R P T T T U T T T T T P T T P H ",
"4 u M H n H H H H n b T T n T H H P H p ; & : a v b n n H P T H n n T n H H H H H p : & : p v n H b P T P H H H H H n H H H H x ",
"# : t u u u u u p p u u p u u u d u u > X   @ : t u u u g u p u p i a a u d 7 g u -   . # : t u u u d u u u u u u u u u u u u 4 ",
"X $ & @ X @ X X X X . . @ - = = = < - = $ $ & = : = , < - @ O o X . @ - = - - - = & & $ & : : = < < = @ @ @ @   @ @   @ X @ @ @ ",
"X X X X X X X X X X . X 7 m ) ..) ` ` X.{ ) ' ' ' ` X...E P 5 X   @ 7 Z ) ` ` X.{ } } _ ' ' ' ......E D : X X X X X X X X X . @ ",
"X O X X X X X o X X @ t U | O.@.+.O.O.*.%.O.*.@.O.@.O.O.O.X.D t @ u n { O.@.O.O.+.%.*.O.@.@.O.O.@.@.O.X.D 5 X X @ X X X X X X X ",
"X @ @ X X @ X X X X @ m | o.@.O.O.@.O.O.@.O.O.O.+.O.O.@.O.O.{ A & D { o.O.@.O.O.O.O.@.O.O.@.O.O.O.O.O.O.{ h X X X X X X @ X X X ",
"X X o @ @ @ X X X X @ A O.O.O.O.O.O.O.@.O.O.O.@.O.O.O.O.O.O.O.G = I  . .O.O.O.@.@.O.O.O.O.O.O.@.@.+.O.O.o.A @ X X X X @ X @ X X ",
"@ @ @ @ X X X @ X X # S &.O.O.O.O.@.O.O.O.@.O.@.@.O.@.O.O.O.+.Y , Y %. .@.O.O.O.O.O.@.O.O.@.O.O.O.O.O.O.*.S % .   X X X @ X @ X ",
"@ o @ @ @ X X @ @   & G %.O.O.O.O.O.@.+.O.O.O.O.O.O.O.O.O.O.O./ = Y %.O.O.O.O.@.O.O.O.O.@.O.@.O.O.O.O.@.@.G @ X @ X X @ X X X X ",
"X @ @ X X X @ X X X & c  .*.@.O.@.@.O.O.O.@.O.@.O.O.O.O.O.O.} D : A X.O.@.O.O.O.O.*.@.O.@.O.O.O.O.O.O.O.} l $ X X @ X @ X @ X X ",
"o @ @ X X @ @ X X X & t U o.$.@.@.%.$.O.$.@.@.O. .O.*.@.o.o.U u 4 t G o.$.@.@. . . . .%.O.O.$.@.O.%.O.| I t @ @ X @ X X @ X @ X ",
"o @ @ @ X X X X X X X & i D }  .} X.O.} O.}  .}  .} } O.{ ) u & @ = g F } o.} O.O.o. .X.X. .} } X.O.{ R i & X X @ @ X @ X X X X ",
"@ @ @ X @ X @ @ X o . X - 4 i y i y y y y t y y y i g g s 5 * . . X * r i y y y t i y y y i s s g g s 5 # X . O o @ X X X X @ X ",
"@ o o X X X X X X X . X @ & @ X   X X X X X X X X X X X o o X X . X X @ X X X X X . X X X X X X X X o o o . X O @ o X X @ X X X ",
"X X @ @ X X X X X X X o X X X X X X X X X X . X X X X X o o X X X O X X X X X X X X . X X X X . X X X o o . o X o X X X X X X X ",
"  @ X X O . X X X X O X O . X X . X . X . X X X . X . X X O X X X X X X . . X X X X X O . X X X . X X X X o X X X X . X X X X   "
};
